<svg width="34" height="34" viewBox="0 0 34 34" fill="none" xmlns="http://www.w3.org/2000/svg">
<g clip-path="url(#clip0_112_2249)">
<path d="M24.9297 0.359985C29.4529 0.359985 33.1201 4.0272 33.1201 8.55042C33.1199 13.0734 29.4528 16.7399 24.9297 16.7399C20.4067 16.7398 16.7405 13.0734 16.7402 8.55042C16.7402 4.02726 20.4065 0.36007 24.9297 0.359985ZM28.9473 4.53284C28.2365 3.82213 27.0838 3.82216 26.373 4.53284L24.9297 5.97522L23.4873 4.53284L23.3486 4.40784C22.6338 3.82506 21.5793 3.86666 20.9131 4.53284C20.2468 5.19908 20.2053 6.25354 20.7881 6.96838L20.9131 7.10706L22.3555 8.54944L20.9131 9.9928C20.2023 10.7035 20.2024 11.8563 20.9131 12.567C21.6238 13.2778 22.7766 13.2778 23.4873 12.567L24.9297 11.1237L26.373 12.567L26.5117 12.692C27.2266 13.2748 28.281 13.2333 28.9473 12.567C29.6134 11.9008 29.6551 10.8463 29.0723 10.1315L28.9473 9.9928L27.5039 8.54944L28.9473 7.10706C29.6579 6.3963 29.658 5.24357 28.9473 4.53284Z" fill="#E73458"/>
<path d="M10.584 7.66257C10.9807 7.66258 11.3292 7.92642 11.4375 8.30807L11.4395 8.31393L11.4453 8.33542L11.4697 8.42136C11.4917 8.49705 11.5253 8.60919 11.5684 8.75339C11.6103 8.8935 11.6641 9.06366 11.7246 9.26022C11.9329 9.1399 12.1848 9.10659 12.4219 9.17722L14.0664 9.66843C14.2181 11.1599 14.6707 12.5624 15.3613 13.8149L13.5449 14.3794C13.5298 14.3841 13.5142 14.3872 13.499 14.3911C13.5879 14.62 13.6768 14.8511 13.7695 15.0815C14.4087 14.8144 15.0919 14.6328 15.8047 14.5464C16.2171 15.1728 16.6907 15.7552 17.2197 16.2827C17.0619 16.2701 16.9023 16.2622 16.7412 16.2622C15.9327 16.2622 15.1615 16.4236 14.459 16.7163C14.7073 17.2742 14.9653 17.8199 15.2295 18.3393C15.9441 19.744 16.6744 20.887 17.3643 21.5698C17.7124 21.9145 17.7157 22.4764 17.3711 22.8247C17.0264 23.1727 16.4644 23.1751 16.1162 22.8305C15.219 21.9426 14.3856 20.593 13.6484 19.144C13.4022 18.66 13.1636 18.1566 12.9326 17.645C11.6313 18.7342 10.8027 20.3709 10.8027 22.2007C10.8031 25.4796 13.4621 28.1381 16.7412 28.1382C20.0202 28.138 22.6783 25.4796 22.6787 22.2007C22.6787 21.0194 22.3319 19.9196 21.7373 18.9946C22.4424 19.2099 23.1778 19.3539 23.9355 19.4223C24.2687 20.2845 24.4531 21.221 24.4531 22.2007C24.4528 26.4596 21.0002 29.9124 16.7412 29.9126C12.4821 29.9125 9.02868 26.4597 9.02832 22.2007C9.02832 19.6344 10.283 17.3614 12.2109 15.9594C12.0122 15.4713 11.8212 14.9859 11.6416 14.5112C11.5635 14.3047 11.4893 14.099 11.415 13.8969C11.3054 14.1469 11.1856 14.4202 11.0557 14.7104C10.4254 16.1177 9.57009 17.9505 8.67969 19.6274C7.71997 21.4345 6.60157 22.3665 5.30469 22.7846C4.29323 23.1106 3.2084 23.0962 2.25098 23.0835C2.07078 23.0811 1.89448 23.0786 1.72461 23.0786C1.23497 23.0783 0.838176 22.6815 0.837891 22.1919C0.837891 21.702 1.23479 21.3044 1.72461 21.3042C1.94421 21.3042 2.15325 21.3061 2.35254 21.3081C3.30777 21.3174 4.04927 21.3251 4.75977 21.0962C5.52352 20.85 6.31882 20.2905 7.11328 18.7944C7.97705 17.1676 8.81375 15.3754 9.43652 13.9848C9.74725 13.291 10.0041 12.6992 10.1826 12.2817C10.2717 12.0732 10.3414 11.908 10.3887 11.7954L10.4424 11.6665L10.4561 11.6342L10.5459 11.4077C10.4394 11.0855 10.3412 10.7846 10.2539 10.5102C10.118 10.0831 10.0059 9.7192 9.9209 9.43796H7.18555C6.69567 9.4379 6.298 9.04012 6.29785 8.55026C6.29785 8.06028 6.69558 7.66262 7.18555 7.66257H10.584ZM32.6328 27.5268C32.6716 27.7824 32.5972 28.0427 32.4287 28.2387C32.2602 28.4347 32.0143 28.5472 31.7559 28.5473H28.0117C27.5736 28.5473 27.2011 28.2274 27.1348 27.7944L25.8555 19.4272C27.797 19.2643 29.5931 18.5958 31.1123 17.5503L32.6328 27.5268Z" fill="#E73458"/>
</g>
<defs>
<clipPath id="clip0_112_2249">
<rect width="32.76" height="32.76" fill="white" transform="translate(0.360352 0.359985)"/>
</clipPath>
</defs>
</svg>
