<svg width="63" height="63" viewBox="0 0 63 63" fill="none" xmlns="http://www.w3.org/2000/svg">
<circle cx="31.5" cy="31.5" r="31.5" fill="#FDE6E8"/>
<g clip-path="url(#clip0_112_2247)">
<path d="M39.9297 15.36C44.4529 15.36 48.1201 19.0272 48.1201 23.5504C48.1199 28.0734 44.4528 31.7399 39.9297 31.7399C35.4067 31.7398 31.7405 28.0734 31.7402 23.5504C31.7402 19.0273 35.4065 15.3601 39.9297 15.36ZM43.9473 19.5328C43.2365 18.8221 42.0838 18.8222 41.373 19.5328L39.9297 20.9752L38.4873 19.5328L38.3486 19.4078C37.6338 18.8251 36.5793 18.8667 35.9131 19.5328C35.2468 20.1991 35.2053 21.2535 35.7881 21.9684L35.9131 22.1071L37.3555 23.5494L35.9131 24.9928C35.2023 25.7035 35.2024 26.8563 35.9131 27.567C36.6238 28.2778 37.7766 28.2778 38.4873 27.567L39.9297 26.1237L41.373 27.567L41.5117 27.692C42.2266 28.2748 43.281 28.2333 43.9473 27.567C44.6134 26.9008 44.6551 25.8463 44.0723 25.1315L43.9473 24.9928L42.5039 23.5494L43.9473 22.1071C44.6579 21.3963 44.658 20.2436 43.9473 19.5328Z" fill="#E73458"/>
<path d="M25.584 22.6626C25.9807 22.6626 26.3292 22.9264 26.4375 23.3081L26.4395 23.3139L26.4453 23.3354L26.4697 23.4214C26.4917 23.497 26.5253 23.6092 26.5684 23.7534C26.6103 23.8935 26.6641 24.0637 26.7246 24.2602C26.9329 24.1399 27.1848 24.1066 27.4219 24.1772L29.0664 24.6684C29.2181 26.1599 29.6707 27.5624 30.3613 28.8149L28.5449 29.3794C28.5298 29.3841 28.5142 29.3872 28.499 29.3911C28.5879 29.62 28.6768 29.8511 28.7695 30.0815C29.4087 29.8144 30.0919 29.6328 30.8047 29.5464C31.2171 30.1728 31.6907 30.7552 32.2197 31.2827C32.0619 31.2701 31.9023 31.2622 31.7412 31.2622C30.9327 31.2622 30.1615 31.4236 29.459 31.7163C29.7073 32.2742 29.9653 32.8199 30.2295 33.3393C30.9441 34.744 31.6744 35.887 32.3643 36.5698C32.7124 36.9145 32.7157 37.4764 32.3711 37.8247C32.0264 38.1727 31.4644 38.1751 31.1162 37.8305C30.219 36.9426 29.3856 35.593 28.6484 34.144C28.4022 33.66 28.1636 33.1566 27.9326 32.645C26.6313 33.7342 25.8027 35.3709 25.8027 37.2007C25.8031 40.4796 28.4621 43.1381 31.7412 43.1382C35.0202 43.138 37.6783 40.4796 37.6787 37.2007C37.6787 36.0194 37.3319 34.9196 36.7373 33.9946C37.4424 34.2099 38.1778 34.3539 38.9355 34.4223C39.2687 35.2845 39.4531 36.221 39.4531 37.2007C39.4528 41.4596 36.0002 44.9124 31.7412 44.9126C27.4821 44.9125 24.0287 41.4597 24.0283 37.2007C24.0283 34.6344 25.283 32.3614 27.2109 30.9594C27.0122 30.4713 26.8212 29.9859 26.6416 29.5112C26.5635 29.3047 26.4893 29.099 26.415 28.8969C26.3054 29.1469 26.1856 29.4202 26.0557 29.7104C25.4254 31.1177 24.5701 32.9505 23.6797 34.6274C22.72 36.4345 21.6016 37.3665 20.3047 37.7846C19.2932 38.1106 18.2084 38.0962 17.251 38.0835C17.0708 38.0811 16.8945 38.0786 16.7246 38.0786C16.235 38.0783 15.8382 37.6815 15.8379 37.1919C15.8379 36.702 16.2348 36.3044 16.7246 36.3042C16.9442 36.3042 17.1533 36.3061 17.3525 36.3081C18.3078 36.3174 19.0493 36.3251 19.7598 36.0962C20.5235 35.85 21.3188 35.2905 22.1133 33.7944C22.977 32.1676 23.8137 30.3754 24.4365 28.9848C24.7472 28.291 25.0041 27.6992 25.1826 27.2817C25.2717 27.0732 25.3414 26.908 25.3887 26.7954L25.4424 26.6665L25.4561 26.6342L25.5459 26.4077C25.4394 26.0855 25.3412 25.7846 25.2539 25.5102C25.118 25.0831 25.0059 24.7192 24.9209 24.438H22.1855C21.6957 24.4379 21.298 24.0401 21.2979 23.5503C21.2979 23.0603 21.6956 22.6626 22.1855 22.6626H25.584ZM47.6328 42.5268C47.6716 42.7824 47.5972 43.0427 47.4287 43.2387C47.2602 43.4347 47.0143 43.5472 46.7559 43.5473H43.0117C42.5736 43.5473 42.2011 43.2274 42.1348 42.7944L40.8555 34.4272C42.797 34.2643 44.5931 33.5958 46.1123 32.5503L47.6328 42.5268Z" fill="#E73458"/>
</g>
<defs>
<clipPath id="clip0_112_2247">
<rect width="32.76" height="32.76" fill="white" transform="translate(15.3604 15.36)"/>
</clipPath>
</defs>
</svg>
