<svg width="24" height="24" viewBox="0 0 24 24" fill="none" xmlns="http://www.w3.org/2000/svg">
<path d="M15.0011 14.6162C16.1914 14.6159 16.9719 14.6162 17.632 14.8164C19.1138 15.266 20.2733 16.4254 20.7228 17.9072C20.923 18.5673 20.9233 19.3477 20.923 20.5381V20.6875C20.9229 21.1361 20.559 21.4997 20.1105 21.5H4.81265C4.36398 21.4999 4.00023 21.1362 4.00015 20.6875V20.5381C3.99982 19.3477 4.0001 18.5673 4.20034 17.9072C4.64991 16.4253 5.80926 15.266 7.29116 14.8164C7.95126 14.6162 8.73162 14.6159 9.92202 14.6162H15.0011ZM12.4611 3C15.1012 3 17.2413 5.14019 17.2414 7.78027C17.2414 10.4204 15.1012 12.5605 12.4611 12.5605C9.82115 12.5603 7.68081 10.4203 7.68081 7.78027C7.68086 5.14033 9.82118 3.00022 12.4611 3Z" fill="#58B999"/>
</svg>
