<svg width="51" height="50" viewBox="0 0 51 50" fill="none" xmlns="http://www.w3.org/2000/svg">
<path d="M38.0952 8.77417C38.3328 8.42117 38.7679 8.25774 39.1792 8.36694C39.5904 8.47625 39.8874 8.83418 39.9184 9.25854L40.5288 17.6423C40.5634 18.1185 40.2561 18.5522 39.7954 18.6775L33.3149 20.4373C33.4985 20.9164 33.688 21.3985 33.8823 21.8796C35.2584 21.2095 36.8045 20.8337 38.438 20.8337C44.1906 20.834 48.8538 25.4971 48.854 31.2498C48.854 37.0026 44.1907 41.6665 38.438 41.6667C32.685 41.6667 28.021 37.0027 28.021 31.2498C28.0211 28.0557 29.4596 25.1986 31.7231 23.2878C31.3138 22.2922 30.9264 21.2945 30.5679 20.3269C30.4678 20.0569 30.3737 19.7873 30.2778 19.5222C30.2426 19.6102 30.2077 19.7 30.1714 19.7908C29.3482 21.8457 28.2362 24.5935 27.0825 27.3601C25.7891 30.4616 23.7975 31.9734 21.6343 32.6404C19.9109 33.1717 18.0942 33.1445 16.7222 33.1238C16.4775 33.1201 16.247 33.117 16.0337 33.1169L14.4389 33.1296C14.0981 36.6936 12.2741 39.4639 9.0327 41.0847C8.40755 41.3973 7.64703 41.1435 7.33446 40.5183C7.02213 39.8934 7.27514 39.1337 7.89989 38.821C10.22 37.661 11.5707 35.7755 11.8921 33.1511L4.83739 33.2107C4.13857 33.2165 3.56695 32.6546 3.56102 31.9558C3.55516 31.257 4.11716 30.6855 4.8159 30.6794L11.8882 30.6199C11.372 26.6073 8.38004 23.7704 4.28661 23.7703C3.58782 23.7703 3.02122 23.2043 3.02098 22.5056C3.02098 21.8067 3.58767 21.24 4.28661 21.24C9.90152 21.2401 13.8786 25.3036 14.4311 30.5984L16.0278 30.5857C16.3041 30.5857 16.5798 30.5893 16.854 30.5925C16.9586 30.5938 17.0632 30.5924 17.1675 30.5935L13.4399 18.8865H11.73C11.0311 18.8865 10.4644 18.3198 10.4643 17.6208C10.4643 16.9219 11.031 16.3552 11.73 16.3552H18.5874C19.2861 16.3555 19.852 16.9221 19.852 17.6208C19.852 18.3196 19.2861 18.8862 18.5874 18.8865H16.0962L19.7827 30.4675C20.1545 30.4113 20.524 30.335 20.8891 30.2224C22.3246 29.7798 23.7387 28.8023 24.7466 26.3855C25.8941 23.6338 27.0012 20.8979 27.8218 18.8494C28.2318 17.8256 28.5704 16.9742 28.8061 16.3787C28.8892 16.1687 28.9589 15.99 29.0151 15.8474C28.8391 15.3065 28.6783 14.8037 28.5366 14.3494C28.3317 13.6923 28.1642 13.1357 28.0386 12.7107H24.0112C23.3125 12.7105 22.7457 12.1438 22.7456 11.4451C22.7456 10.7462 23.3124 10.1796 24.0112 10.1794H28.9897C29.5581 10.1794 30.0572 10.5586 30.2095 11.1062L30.2114 11.115L30.2212 11.1472L30.2573 11.2751C30.2896 11.3886 30.3375 11.557 30.4009 11.7732C30.5276 12.2058 30.714 12.8311 30.9526 13.5964C30.9587 13.6158 30.9641 13.6355 30.9702 13.655L34.2397 14.5046L38.0952 8.77417ZM38.438 23.2644C37.1412 23.2644 35.9172 23.5753 34.8345 24.1238C35.1386 24.8066 35.4494 25.4756 35.769 26.1169C36.817 28.2194 37.8901 29.9338 38.9067 30.9607C39.3983 31.4574 39.3945 32.259 38.8979 32.7507C38.4013 33.2424 37.5997 33.2384 37.1079 32.7419C35.7997 31.4206 34.583 29.4098 33.5044 27.2458C33.2457 26.7268 32.9922 26.1928 32.7446 25.6501C31.3268 27.0914 30.4517 29.0683 30.4516 31.2498C30.4516 35.6602 34.0275 39.2361 38.438 39.2361C42.8482 39.2358 46.4233 35.6601 46.4233 31.2498C46.4232 26.8396 42.8481 23.2647 38.438 23.2644Z" fill="#58B998"/>
</svg>
