<svg width="51" height="50" viewBox="0 0 51 50" fill="none" xmlns="http://www.w3.org/2000/svg">
<g clip-path="url(#clip0_112_1711)">
<path d="M25.5923 9C25.8942 8.48779 26.4954 8.23212 27.0737 8.37012C27.6521 8.50828 28.073 9.00809 28.1108 9.60156L28.6431 17.9531C28.6828 18.5767 28.2905 19.1473 27.6938 19.333L21.0601 21.3975C21.0359 21.405 21.0111 21.4099 20.9868 21.416C21.1223 21.7653 21.2614 22.1163 21.4028 22.4678C22.7985 21.8846 24.3308 21.5625 25.938 21.5625C32.4386 21.5627 37.7083 26.8324 37.7085 33.333C37.7085 39.8338 32.4387 45.1043 25.938 45.1045C19.4371 45.1045 14.1665 39.8339 14.1665 33.333C14.1666 29.4161 16.0819 25.9482 19.0249 23.8086C18.7215 23.0635 18.4309 22.3223 18.1567 21.5977C18.038 21.2839 17.9211 20.9732 17.8081 20.666C17.6414 21.0461 17.4597 21.4614 17.2622 21.9023C16.3003 24.0503 14.9952 26.8469 13.6362 29.4062C12.1713 32.1651 10.4636 33.5875 8.48389 34.2256C6.94014 34.7231 5.28499 34.7011 3.82373 34.6816C3.54865 34.678 3.2803 34.6738 3.021 34.6738C2.27319 34.6738 1.66661 34.0681 1.6665 33.3203C1.6665 32.5724 2.27313 31.9658 3.021 31.9658C3.35625 31.9658 3.67477 31.9687 3.979 31.9717C5.4373 31.9859 6.56916 31.9971 7.65381 31.6475C8.81941 31.2716 10.0322 30.4192 11.2446 28.1357C12.5631 25.6526 13.8399 22.9176 14.7905 20.7949C15.2649 19.7356 15.6568 18.8327 15.9292 18.1953C16.0653 17.877 16.1715 17.625 16.2437 17.4531L16.3257 17.2568L16.3462 17.207L16.4829 16.8623C16.3202 16.3702 16.172 15.9103 16.0386 15.4912C15.831 14.839 15.6595 14.2838 15.5298 13.8545H11.354C10.6063 13.8543 10.0005 13.2478 10.0005 12.5C10.0005 11.7522 10.6063 11.1457 11.354 11.1455H16.5415C17.1468 11.1455 17.6788 11.5476 17.8442 12.1299L17.8472 12.1396L17.8569 12.1719L17.894 12.3027C17.9277 12.4184 17.9785 12.59 18.0444 12.8105C18.1083 13.0243 18.1866 13.2842 18.2788 13.584C18.5971 13.3993 18.9826 13.349 19.3452 13.457L22.4243 14.375L25.5923 9ZM45.6128 21.6182C45.9879 21.5072 46.3929 21.5637 46.7231 21.7734C47.0534 21.9833 47.2765 22.3261 47.3354 22.7129L50.1929 41.4629C50.2522 41.8529 50.1384 42.2495 49.8813 42.5488C49.6241 42.8483 49.2488 43.0205 48.854 43.0205H43.1401C42.4713 43.0205 41.9024 42.5323 41.8013 41.8711L39.1821 24.7402C39.08 24.0712 39.4873 23.4294 40.1362 23.2373L45.6128 21.6182ZM25.938 24.2705C24.7048 24.2705 23.5291 24.5178 22.4575 24.9639C22.8366 25.8154 23.229 26.6486 23.6323 27.4414C24.7231 29.5854 25.8372 31.329 26.8901 32.3711C27.4216 32.8972 27.426 33.7546 26.8999 34.2861C26.3738 34.8174 25.5163 34.8219 24.9849 34.2959C23.6155 32.9406 22.3434 30.8806 21.2183 28.6689C20.8423 27.9299 20.4782 27.1611 20.1255 26.3799C18.1389 28.0422 16.8756 30.54 16.8755 33.333C16.8755 38.3381 20.9329 42.3955 25.938 42.3955C30.9429 42.3954 35.0005 38.338 35.0005 33.333C35.0003 28.3282 30.9428 24.2707 25.938 24.2705ZM46.771 14.583L40.0659 20.833V20.8076H35.0161L39.9272 16.2295H30.104V12.9111H39.9272L35.0161 8.33301H40.0659L46.771 14.583Z" fill="#58B998"/>
</g>
<defs>
<clipPath id="clip0_112_1711">
<rect width="50" height="50" fill="white" transform="translate(0.9375)"/>
</clipPath>
</defs>
</svg>
