<svg width="51" height="50" viewBox="0 0 51 50" fill="none" xmlns="http://www.w3.org/2000/svg">
<path d="M33.6987 16.667C34.2622 16.667 34.7537 17.0495 34.8921 17.5957L34.894 17.6025L34.9009 17.6279L34.9272 17.7314C34.9509 17.8224 34.9864 17.9573 35.0327 18.1309C35.1254 18.4782 35.2615 18.9801 35.436 19.5947C35.7855 20.8254 36.2867 22.5034 36.8911 24.2949C37.0115 24.6518 37.1373 25.0121 37.2651 25.374C38.2175 25.0508 39.2377 24.8741 40.2993 24.874C45.5117 24.874 49.7376 29.0991 49.7378 34.3115C49.7378 39.5241 45.5119 43.75 40.2993 43.75C35.087 43.7498 30.8618 39.5239 30.8618 34.3115C30.8619 31.0462 32.5201 28.1681 35.0405 26.4736C34.873 26.0048 34.7123 25.539 34.5581 25.082C34.3881 24.5781 34.2265 24.0832 34.0737 23.6045C33.8824 23.9465 33.6713 24.321 33.4497 24.7217C32.4348 26.5568 31.1627 28.911 30.1177 31.0137C27.801 35.675 23.3282 35.5791 21.4253 35.5381C21.2701 35.5347 21.1316 35.5312 21.0132 35.5312H20.9321C20.3339 40.1676 16.3739 43.75 11.5747 43.75C6.36229 43.7499 2.13721 39.524 2.13721 34.3115C2.13739 29.0992 6.36241 24.8742 11.5747 24.874C16.3659 24.874 20.3208 28.4442 20.9292 33.0693H21.0132C21.1568 33.0693 21.3079 33.0715 21.4644 33.0732C21.7498 33.0765 22.0549 33.0776 22.3726 33.0713L20.6226 23.2471C20.6217 23.2422 20.6214 23.2373 20.6206 23.2324H19.7817C19.1019 23.2323 18.5513 22.6808 18.5513 22.001C18.5514 21.3213 19.102 20.7706 19.7817 20.7705H23.8853C24.5651 20.7705 25.1166 21.3212 25.1167 22.001C25.1167 22.6809 24.5651 23.2324 23.8853 23.2324H23.1216L24.8091 32.7129C25.9826 32.3248 27.1109 31.5311 27.9126 29.918C28.9814 27.7675 30.2741 25.377 31.2954 23.5303C31.8067 22.6057 32.2515 21.8142 32.5688 21.2539C32.7276 20.9737 32.8546 20.7504 32.9419 20.5977L33.0425 20.4228L33.0776 20.3613C33.0814 20.3548 33.0855 20.3482 33.0894 20.3418C33.0823 20.3169 33.0748 20.2921 33.0679 20.2676C32.9428 19.8272 32.8367 19.4429 32.7515 19.1289H30.0405C29.3607 19.1288 28.8101 18.5773 28.8101 17.8975C28.8102 17.2177 29.3608 16.6671 30.0405 16.667H33.6987ZM11.5747 27.3359C7.7222 27.3361 4.59931 30.459 4.59912 34.3115C4.59912 38.1642 7.72208 41.2879 11.5747 41.2881C15.0114 41.2881 17.866 38.8025 18.4429 35.5312H11.5757C10.8959 35.5312 10.3444 34.9805 10.3442 34.3008C10.3442 33.6209 10.8958 33.0693 11.5757 33.0693H18.438C17.8517 29.8096 15.0032 27.3359 11.5747 27.3359ZM40.2993 27.3359C39.5398 27.336 38.809 27.4582 38.1245 27.6826C38.3922 28.3577 38.6699 29.0177 38.9546 29.6455C39.7211 31.3357 40.4961 32.6905 41.2144 33.4883C41.6692 33.9935 41.6286 34.7716 41.1235 35.2266C40.6183 35.6815 39.8392 35.641 39.3843 35.1357C38.4027 34.0455 37.5022 32.4035 36.7124 30.6621C36.4488 30.0808 36.1941 29.4763 35.9468 28.8623C34.3486 30.1406 33.3238 32.1059 33.3237 34.3115C33.3237 38.1641 36.4468 41.2879 40.2993 41.2881C44.1521 41.2881 47.2759 38.1643 47.2759 34.3115C47.2757 30.4589 44.1519 27.3359 40.2993 27.3359ZM25.2075 4.36426C25.6916 4.10029 26.2837 4.10105 26.7671 4.36621L45.9702 15.8955C46.7296 16.3122 46.9955 17.2444 46.564 17.9775C46.1324 18.7104 45.1671 18.967 44.4077 18.5508L25.9829 7.44922L7.46436 18.5518C6.70378 18.9667 5.73888 18.7079 5.30908 17.9736C4.87958 17.2396 5.14752 16.3085 5.90771 15.8936L25.2075 4.36426Z" fill="#58B998"/>
</svg>
