<svg width="54" height="54" viewBox="0 0 54 54" fill="none" xmlns="http://www.w3.org/2000/svg">
<path d="M40.1299 9.47662C40.3865 9.09523 40.8575 8.91811 41.3018 9.03619C41.7458 9.15438 42.0662 9.5417 42.0996 10.0001L42.7588 19.0538C42.7961 19.568 42.4643 20.0366 41.9668 20.1719L34.9639 22.0733C35.2452 22.8304 35.405 23.2582 35.5557 23.6436C37.0481 22.9121 38.7258 22.5001 40.5 22.5001C46.7132 22.5001 51.75 27.5368 51.75 33.7501C51.75 39.9632 46.7132 45.0001 40.5 45.0001C34.2868 45 29.25 39.9632 29.25 33.7501C29.25 30.3437 30.7655 27.2926 33.1572 25.2295C32.9054 24.562 32.5598 23.4609 32.001 21.9532C31.8934 21.6628 31.7886 21.374 31.6855 21.0889C31.6481 21.1824 31.6109 21.2777 31.5723 21.3741C30.6833 23.5934 29.4824 26.561 28.2363 29.5489C26.8395 32.8984 24.6888 34.5317 22.3525 35.252C20.4914 35.8258 18.5297 35.7959 17.0479 35.7735C16.7834 35.7695 16.5343 35.7657 16.3037 35.7657L14.5811 35.7794C14.2131 39.6289 12.2433 42.6206 8.74219 44.3711C8.06703 44.7087 7.24578 44.435 6.9082 43.7598C6.571 43.0849 6.84481 42.2645 7.51953 41.9268C10.0253 40.6739 11.4831 38.6372 11.8301 35.8028L4.21191 35.8672C3.45713 35.8735 2.84031 35.2666 2.83398 34.5118C2.82786 33.7571 3.43475 33.1402 4.18945 33.1338L11.8262 33.0694C11.2687 28.7359 8.03799 25.6721 3.61719 25.6719C2.86239 25.6719 2.25009 25.0605 2.25 24.3057C2.25 23.5509 2.86233 22.9385 3.61719 22.9385C9.68106 22.9387 13.9744 27.3279 14.5713 33.046L16.2979 33.0323C16.5962 33.0323 16.8934 33.0356 17.1895 33.0391C17.3022 33.0405 17.415 33.0399 17.5273 33.0411L13.502 20.3975H11.6562C10.9014 20.3975 10.2891 19.7852 10.2891 19.0303C10.2891 18.2755 10.9014 17.6641 11.6562 17.6641H19.0615C19.8163 17.6641 20.4287 18.2755 20.4287 19.0303C20.4287 19.7852 19.8164 20.3975 19.0615 20.3975H16.3721L20.3525 32.9053C20.7542 32.8446 21.1533 32.7613 21.5479 32.6397C23.098 32.1617 24.6245 31.1062 25.7129 28.4961C26.9522 25.5243 28.1489 22.5699 29.0352 20.3575C29.4781 19.2517 29.8431 18.3317 30.0977 17.6885C30.1874 17.4619 30.2625 17.2692 30.3232 17.1153C30.1332 16.5311 29.9606 15.9878 29.8076 15.4971C29.5863 14.7875 29.4042 14.1866 29.2686 13.7276H24.9199C24.1651 13.7276 23.5527 13.1153 23.5527 12.3604C23.5527 11.6056 24.1651 10.9932 24.9199 10.9932H30.2969C30.9105 10.9934 31.4489 11.403 31.6133 11.9942L31.6162 12.0049L31.626 12.0391L31.665 12.1778C31.6999 12.3002 31.752 12.4816 31.8203 12.7149C31.9572 13.1821 32.1593 13.8572 32.417 14.6836C32.4235 14.7046 32.4299 14.7259 32.4365 14.7471L35.9658 15.6651L40.1299 9.47662ZM40.5 25.1251C35.7367 25.1251 31.875 28.9868 31.875 33.7501C31.875 38.5133 35.7367 42.375 40.5 42.3751C45.2633 42.3751 49.125 38.5133 49.125 33.7501C49.125 28.9867 45.2633 25.1251 40.5 25.1251ZM40.2686 26.2901C40.6328 25.6396 41.4559 25.4074 42.1064 25.7715C42.7569 26.1357 42.9891 26.9589 42.625 27.6094L39.9727 32.3477L43.3896 31.1836C43.9198 31.0031 44.5067 31.1686 44.8643 31.5997C45.2218 32.0309 45.2756 32.6384 45 33.126L40.4844 41.1143C40.1175 41.7633 39.2936 41.9919 38.6445 41.6251C37.9955 41.2581 37.7669 40.4343 38.1338 39.7852L40.9053 34.8819L37.5098 36.0391C36.9806 36.2192 36.3948 36.0546 36.0371 35.6251C35.6794 35.1955 35.6235 34.5895 35.8965 34.1016L40.2686 26.2901Z" fill="#58B998"/>
</svg>
