<svg width="88" height="88" viewBox="0 0 88 88" fill="none" xmlns="http://www.w3.org/2000/svg">
<circle cx="44" cy="44" r="44" fill="#58B999"/>
<path d="M57.203 26.3792C57.4611 25.9962 57.9334 25.8183 58.3798 25.9368C58.8264 26.0555 59.1488 26.4447 59.1825 26.9055L59.8456 36.01C59.8832 36.5272 59.5491 36.9981 59.0487 37.1341L52.0116 39.0452C52.211 39.5656 52.4168 40.0891 52.6278 40.6116C54.1221 39.8839 55.8003 39.4749 57.5741 39.4749C63.8216 39.4749 68.8866 44.5399 68.8866 50.7874C68.8866 57.0348 63.8216 62.0989 57.5741 62.0989C51.3268 62.0988 46.2627 57.0347 46.2626 50.7874C46.2626 47.3184 47.8247 44.215 50.2831 42.1399C49.8386 41.0588 49.4176 39.9757 49.0282 38.9251C48.9201 38.6332 48.8145 38.3435 48.7108 38.0569C48.6733 38.1507 48.6363 38.2464 48.5976 38.343C47.7037 40.5746 46.496 43.5584 45.2431 46.5628C43.8385 49.9309 41.6762 51.5728 39.3271 52.2971C37.4556 52.8742 35.4831 52.845 33.9931 52.8225C33.7271 52.8185 33.476 52.8148 33.244 52.8147L31.5136 52.8284C31.1434 56.6989 29.1618 59.7069 25.6415 61.4671C24.9627 61.8065 24.1373 61.5316 23.7978 60.8528C23.4584 60.174 23.7334 59.3486 24.412 59.0091C26.9315 57.7493 28.398 55.7017 28.747 52.8518L21.0858 52.9163C20.3271 52.9224 19.7066 52.3127 19.7001 51.554C19.6937 50.795 20.3044 50.1746 21.0634 50.1682L28.7431 50.1028C28.1825 45.7455 24.9333 42.6655 20.4882 42.6653C19.7292 42.6653 19.1132 42.0493 19.1132 41.2903C19.1134 40.5315 19.7293 39.9163 20.4882 39.9163C26.5855 39.9165 30.9037 44.3297 31.5038 50.0794L33.2392 50.0657C33.5391 50.0657 33.8381 50.069 34.1357 50.0725C34.2491 50.0739 34.3624 50.0733 34.4755 50.0745L30.4276 37.3606H28.5712C27.8122 37.3606 27.1972 36.7456 27.1972 35.9866C27.1972 35.2276 27.8122 34.6126 28.5712 34.6126H36.0175C36.7765 34.6126 37.3915 35.2276 37.3915 35.9866C37.3915 36.7456 36.7765 37.3606 36.0175 37.3606H33.3124L37.3163 49.9378C37.72 49.8767 38.121 49.7934 38.5175 49.6712C40.0763 49.1905 41.6115 48.1296 42.706 45.5051C43.9521 42.517 45.1547 39.5462 46.0458 37.3216C46.4913 36.2095 46.8591 35.2838 47.1151 34.637C47.2051 34.4096 47.2807 34.2164 47.3417 34.0618C47.1505 33.474 46.9761 32.9275 46.8222 32.4339C46.5997 31.7202 46.4176 31.1151 46.2812 30.6536H41.9081C41.1492 30.6534 40.5341 30.0385 40.5341 29.2796C40.5342 28.5207 41.1493 27.9057 41.9081 27.9055H47.3144C47.9315 27.9055 48.4732 28.3168 48.6386 28.9114L48.6415 28.9221L48.6513 28.9563L48.6903 29.096C48.7254 29.2191 48.7788 29.4013 48.8476 29.636C48.9851 30.1057 49.1871 30.7847 49.4462 31.6155C49.4528 31.6366 49.4591 31.6586 49.4657 31.68L53.0155 32.6018L57.203 26.3792ZM57.5741 42.1145C56.1659 42.1146 54.8368 42.4524 53.661 43.0481C53.9914 43.7899 54.3294 44.5165 54.6767 45.2132C55.8147 47.4963 56.98 49.3578 58.0839 50.4729C58.6179 51.0123 58.6135 51.8833 58.0741 52.4173C57.5349 52.951 56.6648 52.9464 56.1308 52.4075C54.7101 50.9725 53.3881 48.7887 52.2167 46.4387C51.9358 45.8751 51.6604 45.2956 51.3915 44.7063C49.852 46.2715 48.9023 48.4185 48.9023 50.7874C48.9023 55.5768 52.7847 59.4591 57.5741 59.4593C62.3637 59.4593 66.2469 55.5769 66.247 50.7874C66.247 45.9978 62.3637 42.1145 57.5741 42.1145Z" fill="white"/>
</svg>
