<svg width="70" height="70" viewBox="0 0 70 70" fill="none" xmlns="http://www.w3.org/2000/svg">
<circle cx="31.5" cy="31.5" r="31.5" fill="#58B999"/>
<path d="M42.9279 16.2481C43.1513 15.9162 43.5608 15.7625 43.9474 15.8653C44.334 15.9681 44.6127 16.3043 44.6418 16.7032L45.216 24.584C45.2484 25.0315 44.9594 25.439 44.5266 25.5567L38.4348 27.21C38.6075 27.6609 38.7851 28.1147 38.968 28.5674C40.2615 27.9374 41.7145 27.5831 43.2502 27.5831C48.6579 27.5832 53.0412 31.9673 53.0412 37.3751C53.0411 42.7827 48.6578 47.167 43.2502 47.1671C37.8424 47.1671 33.4583 42.7828 33.4582 37.3751C33.4582 34.3725 34.8109 31.6868 36.9387 29.8907C36.5539 28.9548 36.1898 28.017 35.8527 27.1075C35.7586 26.8535 35.6694 26.6 35.5793 26.3506C35.5462 26.4334 35.5139 26.5182 35.4797 26.6036C34.7059 28.5352 33.6609 31.1182 32.5764 33.7188C31.3606 36.6341 29.4886 38.0557 27.4553 38.6827C25.8353 39.1821 24.1278 39.1563 22.8381 39.1368C22.6078 39.1333 22.3904 39.13 22.1896 39.1299L20.6916 39.1417C20.3712 42.4918 18.6564 45.0956 15.6096 46.6192C15.022 46.913 14.3068 46.6754 14.0129 46.088C13.7191 45.5003 13.9575 44.7851 14.5451 44.4913C16.7259 43.4008 17.996 41.629 18.298 39.1622L11.6662 39.2178C11.0092 39.2233 10.4715 38.6951 10.466 38.0381C10.4606 37.3814 10.989 36.8446 11.6457 36.8389L18.2941 36.7823C17.8088 33.0106 14.9955 30.3448 11.1476 30.3448C10.4908 30.3446 9.95819 29.8112 9.95819 29.1544C9.95843 28.4977 10.4909 27.9651 11.1476 27.9649C16.4255 27.9649 20.1641 31.785 20.6838 36.7618L22.1848 36.7501C22.4444 36.7501 22.7035 36.7538 22.9611 36.7569C23.0592 36.7581 23.1573 36.7569 23.2551 36.7579L19.7521 25.753H18.1447C17.4878 25.7528 16.9553 25.2205 16.9553 24.5635C16.9553 23.9066 17.4878 23.3742 18.1447 23.3741H24.59C25.247 23.3741 25.7804 23.9066 25.7805 24.5635C25.7805 25.2205 25.247 25.753 24.59 25.753H22.2492L25.715 36.6397C26.0643 36.5869 26.4111 36.515 26.7541 36.4092C28.1034 35.9932 29.4326 35.0746 30.3801 32.8028C31.4587 30.2162 32.4993 27.6445 33.2707 25.7188C33.6563 24.7562 33.9749 23.9554 34.1965 23.3956C34.2744 23.1987 34.34 23.0314 34.3928 22.8975C34.2272 22.3887 34.0768 21.9157 33.9435 21.4883C33.7509 20.8706 33.5929 20.3469 33.4748 19.9473H29.6896C29.0326 19.9473 28.5002 19.4149 28.5002 18.7579C28.5003 18.101 29.0327 17.5684 29.6896 17.5684H34.3693C34.9035 17.5685 35.3727 17.9248 35.5158 18.4395L35.5178 18.4483L35.5266 18.4786L35.5607 18.5987C35.5911 18.7052 35.636 18.8634 35.6955 19.0665C35.8146 19.4731 35.9907 20.061 36.215 20.7803C36.2208 20.7987 36.2258 20.8174 36.2316 20.836L39.3039 21.6338L42.9279 16.2481ZM43.2502 29.8682C42.0311 29.8682 40.8803 30.1601 39.8625 30.6758C40.1485 31.318 40.4418 31.9468 40.7424 32.5499C41.7275 34.5261 42.7351 36.1384 43.6906 37.1036C44.1526 37.5704 44.1493 38.323 43.6828 38.7852C43.216 39.2474 42.4624 39.2441 42.0002 38.7774C40.7705 37.5353 39.6264 35.6455 38.6125 33.6114C38.3692 33.1233 38.1315 32.6208 37.8986 32.1104C36.5656 33.4653 35.7433 35.3242 35.7433 37.3751C35.7434 41.5209 39.1044 44.8819 43.2502 44.8819C47.3959 44.8818 50.757 41.5208 50.757 37.3751C50.757 33.2293 47.3959 29.8683 43.2502 29.8682Z" fill="white"/>
<circle cx="56.8333" cy="54.8333" r="12.8333" fill="#FFE4F6"/>
<path d="M56.8334 46.2778C61.5585 46.2779 65.3891 50.1084 65.3891 54.8335C65.389 59.5585 61.5585 63.3891 56.8334 63.3892C52.1084 63.3892 48.2778 59.5585 48.2778 54.8335C48.2778 50.1084 52.1083 46.2778 56.8334 46.2778ZM60.0239 51.6421C59.7155 51.3341 59.216 51.3341 58.9077 51.6421L56.8334 53.7163L54.7592 51.6421C54.4508 51.3339 53.9504 51.3337 53.642 51.6421C53.3337 51.9504 53.3338 52.4509 53.642 52.7593L55.7162 54.8335L53.642 56.9077C53.3341 57.216 53.3341 57.7156 53.642 58.0239C53.9504 58.3323 54.4508 58.3323 54.7592 58.0239L56.8334 55.9507L58.9077 58.0239C59.2161 58.3323 59.7154 58.3323 60.0239 58.0239C60.3323 57.7155 60.3323 57.2161 60.0239 56.9077L57.9506 54.8335L60.0239 52.7593C60.3323 52.4509 60.3323 51.9505 60.0239 51.6421Z" fill="#E73458"/>
</svg>
